# xmcd CD database file
#
# Track frame offsets:
#	183
#	30495
#	52395
#	82178
#	100673
#	116420
#	141188
#	159510
#	187840
#	204795
#	231308
#	249035
#
# Disc length: 3575 seconds
#
# Revision: 0
# Processed by: cddbd v1.4PL0 Copyright (c) Steve Scherf et al.
# Submitted via: NeoAudio 1.40Release
#
DISCID=950df50c
DTITLE=Ed Bentley's Blue Note Quartet - "Bolla" Keyboard Blues
DYEAR=1991
DGENRE=Blues
TTITLE0=Bolla
TTITLE1=Keyboard Blues
TTITLE2=Masquerade
TTITLE3=Park Place Special
TTITLE4=Asylum Down Blues
TTITLE5=Coming Home
TTITLE6=Jim's Back Oops
TTITLE7=Black Coffee
TTITLE8=Taking A Chance On Love
TTITLE9=Round Midnight
TTITLE10=Everybody Needs A Drink
TTITLE11=The Man I Love
EXTD=YEAR: 1991 ID3G: 0
EXTT0=
EXTT1=
EXTT2=
EXTT3=
EXTT4=
EXTT5=
EXTT6=
EXTT7=
EXTT8=
EXTT9=
EXTT10=
EXTT11=
PLAYORDER=
